<svg xmlns="http://www.w3.org/2000/svg" width="1024" height="375"><path d="M968 28c1.458 6.653 2.426 13.216 3 20l3.797-.656 4.953-.844 2.5-.434 2.422-.41 2.222-.38C989 45 989 45 993 45c.36 2.478.714 4.957 1.063 7.438l.314 2.142c.25 1.801.441 3.61.623 5.42-1.897 1.897-5.077 1.7-7.625 2.063l-3.664.535c-3.605.39-7.089.472-10.711.402l.875 3.563c1.285 5.706 1.958 11.477 2.66 17.277.281 3.053.281 3.053 1.465 5.16l1.53-.645a5722.101 5722.101 0 0 1 15.767-6.618c1.963-.822 3.924-1.647 5.884-2.474 2.817-1.188 5.638-2.367 8.46-3.544l2.655-1.127 2.486-1.031 2.18-.916C1019 72 1019 72 1023 72c-.652 6.378-1.967 12.411-3.544 18.62-.26 1.033-.518 2.066-.784 3.131-.852 3.398-1.711 6.794-2.57 10.19l-1.79 7.113c-1.25 4.96-2.503 9.92-3.758 14.88-1.607 6.35-3.204 12.7-4.798 19.052-1.23 4.894-2.465 9.786-3.701 14.678-.591 2.341-1.18 4.682-1.768 7.024-.822 3.276-1.652 6.55-2.484 9.822l-.727 2.918c-1.306 5.101-2.851 9.796-5.076 14.572-2.961-.95-5.92-1.908-8.875-2.875l-2.795-.914a305.252 305.252 0 0 1-16.373-5.973l-3.538-1.405c-2.3-.922-4.596-1.858-6.885-2.807l-3.194-1.28-2.832-1.166c-2.48-.806-2.48-.806-4.706.174-2.555 1.767-4.382 3.909-6.427 6.246-5.14 5.757-10.498 11.277-15.938 16.75l-2.418 2.457-2.273 2.277-2.041 2.054C912 209 912 209 910 209l-15-47-62-9c1-3 1-3 2.558-3.973l2.037-.849 2.31-.982 2.52-1.032c.859-.361 1.717-.722 2.6-1.095 2.759-1.158 5.523-2.301 8.288-3.444 1.82-.762 3.642-1.525 5.462-2.29 4.309-1.804 8.622-3.598 12.937-5.387 3.196-1.324 6.388-2.656 9.581-3.987L886 128l-2.125-1.938c-9.377-9.535-13.225-20.962-13.375-34.187.166-11.448 2.981-19.366 11.074-27.71 8.86-7.906 18.618-9.64 30.215-9.411 9.828.753 16.58 4.616 23.461 11.496C937.916 70.44 941 75.928 941 81c-14.74 2.751-14.74 2.751-20 2-2.25-2.813-2.25-2.813-4-6-3.302-3.302-6.38-3.846-11-4-4.302.9-7.254 2.254-10.375 5.375-4.265 6.89-4.616 13.508-3.09 21.387 1.752 6.405 3.771 10.534 9.528 14.175 5.612 2.163 11.674.135 17.16-1.667 2.616-1.87 2.811-3.818 3.527-6.895l.734-3.04L924 100c6.656-1.281 13.254-2.336 20-3l1 6c1.98-.81 3.96-1.623 5.938-2.438l3.34-1.37c2.588-.936 2.588-.936 3.722-2.192a136.951 136.951 0 0 0-.777-6.66l-.274-2.014c-.29-2.13-.588-4.26-.886-6.388-.198-1.441-.396-2.882-.592-4.323-.485-3.539-.976-7.077-1.471-10.615h-11c-1.246-5.14-2.273-9.679-2-15l11-1-.438-2.598-.562-3.465-.563-3.41c-.44-3.548-.51-6.956-.437-10.527 2.625-.502 5.25-1.002 7.875-1.5l2.262-.434C965.773 28 965.773 28 968 28Z" fill="#622EB4"/><path d="M566.938 89.313C575.375 96.576 580.639 103.791 582 115c-2.395.506-4.79 1.005-7.188 1.5l-2.04.434c-7.793 1.596-7.793 1.596-10.772 1.066-1.59-2.047-1.59-2.047-2.938-4.75-3.198-5.777-6.21-8.194-12.437-10.5-9.104-1.883-16.898-.376-25 4.125-6.05 4.898-9.719 11.332-10.625 19.125-.81 10.67 1.074 21.565 8 30 4.732 5.313 9.97 7.931 17 9 8.168.28 16.85-1.327 23.11-6.867 4.947-5.419 6.728-9.943 7.89-17.133 2.395-.337 4.791-.67 7.188-1 .673-.095 1.347-.19 2.04-.29 3.619-.493 7.12-.823 10.772-.71.926 11.628-2.6 21.998-10 31-8.57 9.703-22.18 14.416-34.715 15.246-14.057.582-25.614-2.823-36.402-12.059-11.033-10.324-16.22-24.087-17.04-39.039-.458-16.02 3.785-28.194 14.7-39.851 15.79-14.761 45.697-18.037 63.394-4.984ZM87.277 157.684C96.096 164.976 99.517 171.83 102 183l-20 3-2.5-4.688c-3.635-6.095-7.837-9.09-14.5-11.312-9.483-.683-17.976-.326-25.75 5.563-6.158 5.814-8.928 13.23-9.316 21.582.23 9.886 2.205 19.338 8.89 26.925 5.898 5.539 11.476 8.021 19.551 8.305 8.837-.306 15.553-2.351 22-8.55 4.25-4.771 4.71-8.425 5.625-14.825l21-3c0 10.296-1.336 19.768-8 28l-1.27 1.695C90.52 244.872 80.236 249.552 69 252c-15.497 1.267-28.518.759-41.375-8.688C17.129 234.213 10.339 220.849 9 207c-1.037-14.946.568-28.726 10-41 16.968-18.526 47.5-23.676 68.277-8.316Z" fill="#FFF"/><path d="M1018 77c1.286 3.858.482 5.592-.633 9.488l-1.14 4.09-.612 2.188c-1.039 3.774-1.993 7.57-2.95 11.366l-.613 2.426a64001.369 64001.369 0 0 1-3.304 13.073c-1.196 4.725-2.39 9.45-3.583 14.175-.97 3.84-1.94 7.68-2.912 11.52l-3.507 13.873-.662 2.62A8709.932 8709.932 0 0 0 991 190c-4.237-.659-7.89-1.588-11.875-3.188a843.887 843.887 0 0 0-14.938-5.75l-2.039-.764a1438.91 1438.91 0 0 0-10.054-3.732C941.589 172.7 931.289 168.406 921 164c0-4 0-4 2.79-6.813a282.27 282.27 0 0 1 3.835-3.187l4.148-3.484 2.14-1.776a551.872 551.872 0 0 0 7.591-6.481 584.485 584.485 0 0 1 14.246-11.946c4.382-3.556 8.567-7.28 12.738-11.079 2.514-2.235 5.085-4.368 7.7-6.484 5.767-4.67 11.36-9.526 16.957-14.398 3.769-3.282 7.558-6.54 11.355-9.79l1.67-1.428c1.06-.908 2.12-1.816 3.182-2.723 2.884-2.469 5.766-4.94 8.648-7.411Z" fill="#FCFBFD"/><path d="M468.168 125.473C476.23 131.87 481.074 140.96 483 151c.246 2.767.203 5.213 0 8-1.604 1.604-3.488 1.45-5.703 1.756l-3.034.425-3.298.448-3.359.466c-3.556.493-7.112.98-10.668 1.468-2.405.332-4.81.664-7.213.998-5.908.817-11.816 1.63-17.725 2.439 1.766 5.84 3.906 9.29 9.375 12.313 6.313 1.653 12.952.99 18.625-2.313 1.35-1.898 1.35-1.898 2.375-4.063 1.471-2.774 2.123-3.74 5.09-4.902 5.502-1.034 10.951-1.246 16.535-1.035-1.34 9.574-4.235 17.623-12.059 23.723-8.637 5.682-19.623 8.575-29.941 7.277-10.27-2.226-18.08-5.57-24.25-14.25-7.137-11.512-9.89-24.484-7.102-37.86 3.759-11.37 10.892-18.476 21.329-23.921 11.372-4.742 26.143-3.322 36.191 3.504ZM434 141c-2.358 3.556-5 7.627-5 12 11.12-.588 22.013-2.258 33-4-1.651-5.74-3.29-7.565-8-11-6.163-3.082-14.923-1.458-20 3ZM179.875 168.063c9.522 8.244 13.08 18.527 14.438 30.75.449 9.659-2.202 19.92-8.489 27.41-10.18 9.919-21.707 13.041-35.585 13.098-9.47-.16-18.193-3.342-25.012-10.071-9.253-9.994-11.854-20.743-11.54-34.082.286-5.315 1.687-9.547 4.313-14.168l1.25-2.355c5.134-8.708 13.21-13.783 22.75-16.645 13.078-2.55 26.7-1.803 37.875 6.063Zm-41.125 17.312c-4.706 5.925-5.607 11.147-4.75 18.625 1.761 7.183 4.78 11.966 11 16 4.769 2.623 9.248 2.72 14.496 1.348 5.096-1.765 8.783-3.6 11.602-8.305 3.279-7.425 3.483-14.366.902-22.043-2.757-5.218-6.67-9.335-12-12-8.807-.686-15.08-.4-21.25 6.375ZM849.313 72.688C857.313 79.213 861.668 88.877 863 99c.012 2.333.014 4.667 0 7-6.923 1-13.846 1.996-20.77 2.99-2.356.34-4.713.679-7.069 1.02-3.383.488-6.766.974-10.15 1.459l-3.2.464-2.972.424c-.864.125-1.728.25-2.618.377C814 113 814 113 811 113c2.58 5.94 4.992 9.996 11 13 6.663.575 12.189.44 18-3 1.91-2.122 3.497-4.26 5.098-6.613 3.04-2.216 6.456-1.963 10.09-2.075l2.271-.103c1.846-.082 3.694-.147 5.541-.209-.222 9.862-3.097 15.423-10.125 22.25-9.918 8.22-21.091 9.03-33.552 8.068-7.703-1.054-14.629-5.499-19.796-11.209-7.974-11.013-10.712-22.7-9.527-36.109 1.887-10.928 6.667-18.225 15.492-24.879 13.606-8.795 30.388-8.584 43.82.567Zm-36.25 16c-2.408 3.866-3.22 6.863-4.063 11.312 11.087-.666 22.024-2.36 33-4-1.08-4.787-3.404-7.688-7-11-7.775-3.577-15.72-2-21.938 3.688ZM660.813 101.125c8.657 7.248 12.708 17.725 14.062 28.688.677 10.849-2.987 20.47-9 29.312-7.475 8.415-18.513 11.733-29.313 12.688-11.75.55-22.347-1.797-31.312-9.875-8.706-9.488-11.594-21.332-11.25-33.875.85-9.316 4.862-17.08 11-24.063 15.783-12.662 38.984-14.64 55.813-2.875Zm-42.75 17.438c-3.948 6.008-3.768 12.462-3.063 19.437 2.288 7.139 5.7 11.676 12.313 15.25 6.65 1.856 12.665.98 18.687-2.25 4.646-3.82 7.656-7.662 8.285-13.77.226-7.792-.864-13.285-4.972-19.98-4.473-4.352-9.046-6.47-15.313-6.75-6.816.325-11.838 2.535-15.938 8.063ZM266 147c2.86 16.445 5.494 32.908 7.813 49.438l.335 2.357c.317 2.233.627 4.467.934 6.701l.538 3.88c.375 3.572.448 7.036.38 10.624-1.728.339-3.458.67-5.188 1l-2.917.563c-2.688.406-5.183.516-7.895.437l-2-8-1.625 2.688c-4.738 6.975-10.233 9.746-18.375 11.312-7.303.93-13.618-.268-20-4-13.061-10.82-13.007-31.626-15.188-47.063l-.542-3.82-.5-3.652-.45-3.262c-.342-3.42-.373-6.768-.32-10.203 13.037-2.398 13.037-2.398 19-2 1.94 1.94 1.725 5.422 2.086 8.078l.633 4.461c.326 2.336.65 4.672.973 7.009 1.495 16.704 1.495 16.704 7.62 31.702 3.175 2.067 4.888 2.75 8.688 2.75 4.109-.89 7.091-1.726 9.595-5.237 4.273-8.405.771-20.557-.595-29.45-1.193-7.84-2.275-15.374-2-23.313 12.96-3 12.96-3 19-3ZM370.75 130.75l2.344-.063c7.01-.047 12.26 1.532 18.156 5.5 4.8 4.91 6.75 8.923 6.75 15.813l-18 2-2-4c-4.254-2.882-9.058-2.544-14-2-2.48 1.164-4.094 2.094-6 4-.04 2-.043 4 0 6 3.22 1.896 5.644 2.26 9.36 2.309l3.132.076c2.156.035 4.313.066 6.469.094 9.218.234 17.134 2.001 24.039 8.521 3.559 5.812 4.678 11.205 4 18-2.117 6.974-6.245 12.658-12.48 16.547-6.614 3.245-13.22 4.712-20.52 5.453l-2.113.219c-7.825.389-16.23-1.394-22.387-6.344-3.757-3.678-6.018-7.844-7.5-12.875v-3c2.04-.34 4.083-.671 6.125-1l3.445-.563c3.223-.41 6.19-.694 9.43-.437a132.038 132.038 0 0 1 3 5c5.196 2.788 10.399 2.08 16 1 3.558-.9 3.558-.9 6-3 .979-3.594.979-3.594 1-7-3.135-2.77-5.098-3.368-9.254-3.371l-3.092-.053a1751.16 1751.16 0 0 0-6.351-.015c-7.837-.143-16.112-.992-22.309-6.27-4.923-5.27-6.459-10.884-6.232-17.994.619-5.966 2.461-9.926 6.863-14.047 7.964-6.436 16.133-8.435 26.125-8.5Z" fill="#FFF"/><path d="m1010 81-1.49 1.019A30763.13 30763.13 0 0 0 991 94l-2.1 1.438a3883.722 3883.722 0 0 0-25.212 17.437 3499.672 3499.672 0 0 1-28.364 19.54c-3.2 2.183-6.398 4.37-9.595 6.558a1632.91 1632.91 0 0 1-4.794 3.265c-3.84 2.61-7.637 5.26-11.369 8.024l-2.143 1.558c-1.317.96-2.621 1.935-3.91 2.93-6.713 4.845-12.79 3.56-20.634 2.375l-3.355-.555c-3.659-.592-7.321-1.092-10.997-1.57l-3.783-.5c-2.572-.338-5.145-.671-7.719-1l-3.748-.5-3.367-.438c-2.67-.516-4.577-1.201-6.91-2.562 8.92-4.814 18.308-8.564 27.667-12.42 2.762-1.14 5.521-2.284 8.28-3.43 14.643-6.062 14.643-6.062 21.213-8.365 4.211-1.484 8.077-3.36 12.04-5.406 5.924-2.918 12.077-5.352 18.175-7.879l4.04-1.684c2.628-1.096 5.258-2.19 7.889-3.28 4.218-1.751 8.431-3.515 12.644-5.28 2.598-1.07 5.205-2.11 7.817-3.143 4.934-1.97 9.789-4.088 14.637-6.258 1.731-.766 3.462-1.533 5.194-2.298 2.69-1.192 5.379-2.386 8.064-3.589 2.619-1.171 5.243-2.33 7.867-3.488l2.443-1.104 2.268-.992 1.988-.886C1007 80 1007 80 1010 81Z" fill="#FAF9FC"/><path d="M929.375 60.875C935.563 65.97 938.489 71.455 941 79v2c-14.74 2.751-14.74 2.751-20 2-2.25-2.813-2.25-2.813-4-6-3.302-3.302-6.38-3.846-11-4-4.302.9-7.254 2.254-10.375 5.375-4.265 6.89-4.616 13.508-3.09 21.387 1.752 6.405 3.771 10.534 9.528 14.175 5.612 2.163 11.674.135 17.16-1.667 2.616-1.87 2.811-3.818 3.527-6.895l.734-3.04L924 100c6.656-1.281 13.254-2.336 20-3v8c-9.114 4.861-18.649 8.695-28.188 12.625l-7.285 3.016c-1.5.621-3 1.241-4.502 1.86l-2.084.86-1.997.823c-1.945.816-3.87 1.672-5.797 2.528-3.5 1.433-4.682 1.71-8.147.288-7.863-5.186-12.382-13.706-14.527-22.75-1.769-12.16-1.947-24.652 5.48-34.96 12.604-15.029 35.647-20.402 52.422-8.415Z" fill="#FEFEFE"/><path d="m727 82 2 17-7 2c-1.424.5-2.843 1.016-4.25 1.563A153.128 153.128 0 0 1 711 105c-1.184 2.376-1.184 2.376-2 5l-1 3c.05 9.937 1.407 19.76 2.983 29.552.866 5.556 1.148 10.824 1.017 16.448-2.04.34-4.083.671-6.125 1l-3.445.563c-3.196.407-6.215.469-9.43.437-2.937-12.005-4.562-24.172-6.217-36.406a2929.8 2929.8 0 0 0-1.441-10.446c-.306-2.234-.612-4.468-.916-6.703l-.436-3.122c-.735-5.499-1.14-10.775-.99-16.323 5.407-.92 10.513-1.084 16-1l2 11 2.125-3.688c3.742-5.932 8.166-9.339 14.652-11.832C720 82 720 82 727 82ZM781 75c.34 1.707.672 3.416 1 5.125l.563 2.883c.444 3.042.51 5.923.437 8.992l-2.668.516-3.52.734-3.48.703c-4.262 1.339-7.058 2.816-9.327 6.79-2.21 5.11-2.176 9.271-1.38 14.695l.302 2.4c.221 1.748.45 3.495.686 5.242.581 4.388 1.09 8.784 1.607 13.18.58 4.915 1.18 9.828 1.78 14.74-14.216 2.394-14.216 2.394-20 2-1.815-1.815-1.605-4.637-1.94-7.093l-.545-3.955-.581-4.311-.601-4.4c-.42-3.08-.838-6.16-1.254-9.24-.531-3.943-1.07-7.885-1.61-11.826-.416-3.032-.827-6.064-1.238-9.096l-.595-4.358c-.278-2.036-.553-4.073-.826-6.11l-.475-3.51A60.541 60.541 0 0 1 737 81c1.728-.339 3.458-.67 5.188-1l2.917-.563C748 79 748 79 753 79l2 12 1.938-4.125c3.387-6.06 7.985-9.486 14.539-11.719 3.738-.925 5.804-1.396 9.523-.156ZM329 138l2 17-9.668 2.734c-4.718 1.792-7.498 3.96-10.207 8.203-3.394 8.967.43 21.406 1.938 30.563.369 2.26.735 4.52 1.097 6.781l.489 2.971c.334 2.619.416 5.111.351 7.748-4.963 1.22-9.728 2.14-14.824 2.566l-2.952.253L295 217a5224.964 5224.964 0 0 1-6.84-45.036c-.273-1.848-.547-3.696-.823-5.544-.392-2.625-.78-5.25-1.165-7.877l-.36-2.39c-.543-3.735-1.065-7.376-.812-11.153 2.358-2.358 7.058-1.974 10.242-2.063 1.92 0 3.839.03 5.758.063.2.957.2.957.402 1.934l.536 2.504.527 2.496c.343 2.043.343 2.043 1.535 3.066l1.625-3.188c3.688-6.36 8.227-9.1 15.031-11.332C323 138 323 138 329 138Z" fill="#FFF"/><path d="M968 28c1.458 6.653 2.426 13.216 3 20l3.797-.656 4.953-.844 2.5-.434 2.422-.41 2.222-.38C989 45 989 45 993 45c.36 2.478.714 4.957 1.063 7.438l.314 2.142c.25 1.801.441 3.61.623 5.42-1.897 1.897-5.077 1.7-7.625 2.063l-3.664.535c-3.605.39-7.089.472-10.711.402l.93 3.871c1.12 5.04 1.71 10.057 2.195 15.192l.262 2.623c.209 2.104.412 4.209.613 6.314-1.561.794-3.124 1.585-4.688 2.375l-2.636 1.336C962.559 98.14 962.559 98.14 958 97l-4-30h-11c-1.246-5.14-2.273-9.679-2-15l11-1-.438-2.598-.562-3.465-.563-3.41c-.44-3.548-.51-6.956-.437-10.527 2.625-.502 5.25-1.002 7.875-1.5l2.262-.434C965.773 28 965.773 28 968 28Z" fill="#FEFEFE"/><path d="m993 94 2 1c-6.202 5.746-12.485 11.281-19.063 16.598-3.291 2.691-6.525 5.443-9.75 8.215l-1.777 1.528A7760.387 7760.387 0 0 0 959 126c-2.395 2.064-4.79 4.127-7.188 6.188l-1.763 1.516a511.244 511.244 0 0 1-10.799 8.983 233.247 233.247 0 0 0-10.438 9C924.73 155.411 920.5 158.796 916 162c1.402 2.944 3.003 5.622 4.82 8.328l1.621 2.422 1.684 2.5 1.707 2.547c1.387 2.069 2.777 4.137 4.168 6.203-1.267 2.78-2.553 4.79-4.75 6.91l-1.594 1.56-1.656 1.593c-4.328 4.178-4.328 4.178-8 8.937h-2c-3.253-7.395-5.545-14.97-7.762-22.719-1.406-4.916-2.963-9.78-4.539-14.644C899 163 899 163 899 159a71.113 71.113 0 0 1 7-5.063l4.45-2.949 2.305-1.509c3.389-2.233 6.721-4.544 10.058-6.854 4.197-2.89 8.4-5.772 12.609-8.645a3515.138 3515.138 0 0 0 28.981-20.004 2300.312 2300.312 0 0 1 21.923-15.08l2.229-1.517 1.952-1.326c1.47-.974 1.47-.974 2.493-2.053Z" fill="#984CF3"/><path d="M998 88c2.938.688 2.938.688 5 2-7.685 7.768-15.817 14.925-24.316 21.785-2.631 2.171-5.163 4.417-7.684 6.715a230.464 230.464 0 0 1-10.188 8.75c-6.425 5.204-12.64 10.64-18.876 16.068-3.177 2.76-6.367 5.504-9.561 8.244l-1.72 1.48c-2.46 2.11-4.936 4.177-7.49 6.173-2.243 1.604-2.243 1.604-3.165 3.785-2.563.625-2.563.625-5 1 1.228-3.685 2.586-4.5 5.625-6.875a404.952 404.952 0 0 0 13.75-11.5 1287.11 1287.11 0 0 1 15.78-13.53c3.966-3.346 7.91-6.715 11.845-10.095 10.238-8.786 20.525-17.498 31-26-2.904 1.374-5.478 2.944-8.098 4.8l-2.398 1.692-2.567 1.82a7431.156 7431.156 0 0 1-5.437 3.829l-2.785 1.959c-4.072 2.85-8.172 5.66-12.278 8.463l-2.34 1.597-4.699 3.205c-14.447 9.834-14.447 9.834-28.793 19.815-4.337 3.03-8.706 6.015-13.074 9.002-2.676 1.833-5.321 3.655-7.883 5.646C901 159 901 159 899 159l-1 3v-3h-5v-1l2.969-.625c4.899-1.407 8.521-4.324 12.531-7.375a306222324.749 306222324.749 0 0 1 7.237-5.353c3.09-2.249 6.253-4.367 9.45-6.46 6.43-4.226 12.754-8.596 19.063-13a2593.341 2593.341 0 0 1 21.688-15l2.324-1.587 4.517-3.083c3.66-2.5 7.317-5.007 10.971-7.517l1.914-1.312 1.82-1.25 1.756-1.2c1.238-.871 2.458-1.768 3.663-2.684 1.653-1.248 3.371-2.408 5.097-3.554Z" fill="#723FBF"/><path d="M458.563 262.938 461 263c-.49 5.651-2.742 9.597-5.563 14.375l-1.287 2.23A840.005 840.005 0 0 1 451 285l2.203.852a86.586 86.586 0 0 1 7.547 3.523c.779.4 1.557.8 2.36 1.21C465 292 465 292 465.765 294.166L466 296c-4.053 1.157-5.97.935-9.645-1.09l-2.548-1.377-2.62-1.47-2.677-1.46A648.465 648.465 0 0 1 442 287v-5l1.855-.771c2.446-1.401 3.154-2.432 4.47-4.89l1.177-2.153 1.185-2.248c.795-1.471 1.59-2.941 2.387-4.41l1.05-1.977c1.435-2.54 1.435-2.54 4.438-2.613ZM408 257c3.392-.411 4.672-.243 7.465 1.828l2.473 2.422c4.051 3.87 4.051 3.87 8.625 7.063C429 270 429 270 429.938 272.188L430 274c-1 1-1 1-3.219 1.328-3.802-.448-5.415-2.083-8.281-4.578l-2.781-2.39L413 266l-2.824-2.125C408 262 408 262 407.688 259.25L408 257ZM123 317c5.034 1.648 9.026 4.606 13.313 7.625l2.244 1.563c1.817 1.266 3.632 2.537 5.443 3.812l-1 4c-4.779.527-7.134-1.047-11-3.75l-3.063-2.11A182.733 182.733 0 0 1 121 322c.875-3.875.875-3.875 2-5ZM830 281l1 4c-3.939 3.362-8.027 5.873-12.563 8.313l-1.998 1.126c-4.92 2.656-4.92 2.656-7.658 2.155L807 296c.502-4.566.502-4.566 2.702-6.486l2.193-1.19 2.396-1.318 2.521-1.318c.821-.455 1.641-.91 2.487-1.377C825.437 281 825.437 281 830 281ZM862.813 257.25 865 258c-.791 5.73-5.776 8.549-10 12l-1.977 1.629c-2.682 2.074-4.551 3.32-7.96 3.683L843 275c-.355-2.215-.355-2.215 0-5 2.45-2.316 2.45-2.316 5.688-4.563l3.199-2.253L855 261l2.719-2.293C860 257 860 257 862.812 257.25ZM529.75 314.813l2.422.54c4.369.996 8.6 2.14 12.828 3.647l-1 5c-5.656-.605-11.002-1.622-16.5-3.063l-2.203-.564c-1.767-.453-3.532-.913-5.297-1.373l-1-5c3.435-1.718 7.147-.028 10.75.813ZM435 296l4 2c-1.517 4.833-4.286 8.016-7.563 11.75l-1.537 1.785c-3.562 4.127-3.562 4.127-4.9 5.465-1.666.04-3.334.043-5 0-.298-3.032-.388-4.495 1.504-6.957l2.058-1.856c4.106-3.842 7.796-7.907 11.438-12.187ZM90 292c3.804.531 5.914 1.384 8.77 3.941l2.001 1.768 2.041 1.853 2.1 1.866c1.704 1.515 3.4 3.04 5.088 4.572l-1 5c-4.046-.571-6.359-2.67-9.438-5.25l-2.808-2.328c-2.712-2.385-5.32-4.752-7.754-7.422.188-2.313.188-2.313 1-4ZM793 301v4a983.685 983.685 0 0 1-9.688 4.063l-2.763 1.181-2.686 1.104-2.46 1.031c-2.813.727-4.628.383-7.403-.379v-4a983.685 983.685 0 0 1 9.688-4.063l2.763-1.181 2.686-1.104 2.46-1.031c2.813-.727 4.628-.383 7.403.379ZM481 300c4.72.612 9.203 2.28 13.688 3.813l2.337.751c5.577 1.915 5.577 1.915 7.557 4.51C505 311 505 311 504 313c-5.433-.599-10.246-1.88-15.375-3.75l-2.191-.727c-2.082-.757-2.082-.757-5.434-2.523-1.04-2.64-1.04-2.64-1-5l1-1ZM410 326c-.304 3.295-.712 4.709-3.074 7.098l-2.613 1.964-2.743 2.063L399 339l-1.82 1.438c-2.57 1.937-3.795 2.596-7.055 2.312L388 342c.841-5.325 4.634-7.221 8.75-10.25l2.172-1.68 2.125-1.586 1.932-1.446c2.477-1.272 4.274-1.227 7.021-1.038ZM193 356c5.97.314 11.327 1.517 17 3.313.671.2 1.342.4 2.033.608 1.905.63 1.905.63 4.967 2.079.938 2.168.938 2.168 1 4-2.398 1.539-3.527 2.082-6.382 1.584l-2.602-.92-2.832-.976-2.934-1.063-2.98-1.04A712.743 712.743 0 0 1 193 361v-5ZM753 314v5c-3.038.846-6.081 1.674-9.125 2.5l-2.594.723c-4.538 1.222-8.533 2.088-13.281 1.777l-1-4c3.603-2.402 7.158-3.172 11.313-4.125l2.263-.55c4.227-.988 8.051-1.534 12.424-1.325ZM338 363l1 3c-2.146 2.43-3.682 3.447-6.836 4.168-.735.17-1.47.342-2.226.518-.764.165-1.527.33-2.313.502l-2.29.537c-3.841.87-7.369 1.504-11.335 1.275l-1-5 16-4 2.071-.557c2.346-.539 4.53-.51 6.929-.443ZM376 349v4c-2.726 1.32-5.455 2.63-8.188 3.938l-2.33 1.13c-3.804 1.813-7.252 3.398-11.482 3.932-1.063-1.875-1.063-1.875-2-4 1.695-3.39 5.579-4.155 8.938-5.563l4.402-1.878L369 349c2.667-1.333 4.167-.671 7 0ZM711 323l1 5c-8.784 2.311-16.918 3.148-26 3l1-5c3.061-.506 6.124-1.004 9.188-1.5l2.619-.434c4.098-.66 8.025-1.273 12.193-1.066ZM434 8c5.22.44 7.817 2.042 11.75 5.438l2.86 2.433c1.5 1.336 2.97 2.708 4.39 4.129.125 2.625.125 2.625 0 5-1.73.758-1.73.758-4 1-2.113-1.695-2.113-1.695-4.313-4.125-3.664-3.889-7.235-6.939-11.687-9.875l1-4ZM157 339c5.192.572 9.31 3.098 13.813 5.563l2.388 1.287A1115.16 1115.16 0 0 1 179 349l-1 5c-7.958-2.293-14.82-5.949-22-10l1-5ZM561 323c8.449.155 16.742 1.264 25 3v5c-5.879.16-11.234-.39-17-1.5l-2.348-.434c-1.885-.349-3.769-.706-5.652-1.066-.563-1.938-.563-1.938-1-4l1-1ZM670 328v5c-3.35.754-6.431 1.12-9.863 1.098l-2.686-.01-2.764-.026-2.822-.013A1757.79 1757.79 0 0 1 645 334l-1-5c8.67-1.167 17.274-1.097 26-1ZM382.207 7.375 384 8c-.32 3.113-.591 4.609-2.89 6.809l-2.36 1.629c-3.945 2.869-6.815 5.68-9.75 9.562l-4-1c.105-4.323 1.176-6.554 4.125-9.563 9.42-8.684 9.42-8.684 13.082-8.062ZM233 367c8.109.161 16.072 1.364 24 3 .563 1.938.563 1.938 1 4-1 1-1 1-4.531 1.156-4.441-.055-8.629-.764-12.969-1.656l-2.203-.434A862.719 862.719 0 0 1 233 372c-.563-1.938-.563-1.938-1-4l1-1ZM602 328c3.02-.027 6.042-.047 9.063-.063l2.568-.025c4.905-.019 9.533.255 14.369 1.088v5c-2.667.027-5.333.047-8 .063l-2.254.025c-5.007.022-9.789-.373-14.746-1.088l-1-5ZM356 37l5 1c-.617 5.394-1.88 10.284-3.563 15.438l-.708 2.216c-.572 1.784-1.15 3.565-1.729 5.346l-5-1c.613-7.816 2.478-15.957 6-23ZM460 36c2.262.02 2.262.02 5 1a52.234 52.234 0 0 1 3.813 7.688c.31.708.622 1.416.943 2.146C471.523 51.039 472.373 54.36 472 59c-2.227.05-2.227.05-5-1-1.896-2.744-3.104-5.74-4.375-8.813l-1.113-2.486c-2.88-6.7-2.88-6.7-1.512-10.701Z" fill="#FFF"/><path d="M944 107c-2.803 2.803-6.211 3.896-9.824 5.371l-2.363.979c-2.498 1.034-5 2.06-7.5 3.088-2.483 1.024-4.966 2.05-7.448 3.076-1.544.638-3.089 1.275-4.634 1.91a696.587 696.587 0 0 0-10.11 4.236c-3.668 1.575-7.375 2.96-11.121 4.34v-3a103405.922 103405.922 0 0 1 25.397-10.731c3.09-1.307 6.18-2.612 9.271-3.917l2.905-1.229 2.729-1.152 2.388-1.01L936 108l2.606-1.186C941 106 941 106 944 107Z" fill="#7C51C0"/><path d="M397 0h23l1 5c-3.094.954-5.428.984-8.625.563C407.229 4.965 402.175 4.9 397 5V0ZM298 370v5h-25v-4c16.708-1.148 16.708-1.148 25-1ZM54 255c5.055.848 7.892 4.115 11 8 .938 2.938.938 2.938 1 5-2.227.758-2.227.758-5 1-2.273-1.695-2.273-1.695-4.375-4.125l-2.148-2.383C53 260 53 260 53.273 257.195L54 255ZM885.938 235.063 888 236c-.585 3.66-2.083 5.545-4.563 8.25l-1.94 2.14L880 248l-5-1c.149-4.911 2.765-7.457 6.145-10.684C883 235 883 235 885.938 235.062ZM353.04 104.566C355 106 355 106 355.897 108.715l.477 3.222.523 3.215C357 118 357 118 355 121l-4-1c-1.263-5.075-2.27-9.728-2-15 2-1 2-1 4.04-.434ZM388 233c2.834.261 3.909.91 5.957 2.926l1.856 2.387 1.894 2.363C399 243 399 243 398.699 245.293L398 247c-2.805-.082-4.54-.6-6.668-2.45-2.549-2.79-4.192-4.63-4.77-8.425C387 234 387 234 388 233ZM376 215c3.075.31 4.556.47 6.582 2.89l1.23 2.36 1.27 2.328c1.002 2.643 1.092 4.62.918 7.422h-5a376.536 376.536 0 0 1-2.5-4.688l-1.406-2.636c-1.142-2.794-1.309-4.692-1.094-7.676ZM907 210c-.35 5.704-1.708 10.005-6 14-2.813.438-2.813.438-5 0-.405-4.39.543-6.383 3.25-9.813l1.828-2.394C903 210 903 210 907 210ZM468 234l5 1c-.539 5.277-1.773 9.256-4 14h-5c.497-5.661 1.545-9.877 4-15ZM68 271c4.911.149 7.457 2.765 10.684 6.145C80 279 80 279 79.938 281.938c-.31.68-.62 1.36-.938 2.062-3.772-.57-5.627-2.166-8.313-4.813l-2.175-2.082C67 275 67 275 67.27 272.738L68 271ZM476 92h4c1.036 5.05 1.103 9.874 1 15l-5 1c-1.433-2.866-1.132-5.372-1.125-8.563l-.008-3.566C475 93 475 93 476 92ZM476 204l5 1c-.412 4.97-.796 9.445-3 14h-5c.445-5.273 1.084-10.018 3-15ZM348 75h5v14l-4 1c-2-2-2-2-2.23-4.023l.043-2.352.019-2.336c.162-2.208.562-4.164 1.168-6.289ZM472 73h5c1.591 4.873 2.212 8.808 2 14h-5c-2.296-9.41-2.296-9.41-2-14Z" fill="#FFF"/><path d="M977 93c-2.448 2.448-4.743 3.3-7.938 4.625l-3.214 1.352C963 100 963 100 960 100l-1-2a912.559 912.559 0 0 1 7.313-3.063l2.091-.892C973.66 91.887 973.66 91.887 977 93Z" fill="#7F55C1"/><path d="M905 124c-2.525 2.525-4.735 3.043-8.125 4.125l-3.32 1.07L891 130v-3c9.41-4.777 9.41-4.777 14-3Z" fill="#865EC4"/><path d="M1010 81a971.577 971.577 0 0 1-4.875 3.5l-2.742 1.969C1000 88 1000 88 998 88v-4c1.432-.7 2.87-1.384 4.313-2.063l2.425-1.16C1007 80 1007 80 1010 81Z" fill="#D6C9EB"/><path d="m993 94 2 1-11 10-2-1c1.265-3.796 2.782-4.487 6.063-6.688l2.785-1.886L993 94Z" fill="#8F47E8"/><path d="M929 113c-3.203 2.834-5.78 3.52-10 4 3.34-3.491 5.153-4.128 10-4Z" fill="#7447BC"/></svg>